M48
;DRILL file {KiCad (5.0.1-3-g963ef8bb5)} date Monday, January 06, 2020 at 09:10:10 PM
;FORMAT={-:-/ absolute / inch / decimal}
FMAT,2
INCH,TZ
T1C0.0157
T2C0.0300
T3C0.0315
T4C0.0394
%
G90
G05
M72
T1
X1.9134Y-5.1063
X2.3701Y-1.5197
X2.6181Y-4.752
X2.7126Y-4.6654
X2.8268Y-1.5827
X2.9409Y-2.7087
X2.9449Y-2.6614
X2.97Y-1.27
X2.98Y-3.73
X3.Y-2.31
X3.0079Y-4.0157
X3.0422Y-1.3422
X3.0597Y-2.1004
X3.09Y-2.37
X3.12Y-3.65
X3.126Y-2.7087
X3.1439Y-2.0846
X3.1575Y-4.6772
X3.1614Y-4.7165
X3.1672Y-3.8504
X3.185Y-2.752
X3.2047Y-2.6614
X3.2087Y-2.5079
X3.2126Y-3.805
X3.2165Y-4.5
X3.2362Y-2.815
X3.24Y-4.2
X3.248Y-3.0866
X3.252Y-4.1024
X3.2835Y-4.7165
X3.2913Y-4.0276
X3.2992Y-4.2717
X3.3071Y-3.1457
X3.31Y-4.86
X3.3254Y-2.0846
X3.3346Y-4.1024
X3.3346Y-4.4724
X3.34Y-1.81
X3.3465Y-2.3661
X3.3797Y-1.8604
X3.3898Y-2.9685
X3.4197Y-2.0804
X3.42Y-4.93
X3.4213Y-4.1772
X3.437Y-4.6496
X3.44Y-3.48
X3.4456Y-4.4665
X3.4497Y-1.7904
X3.4685Y-4.5276
X3.4797Y-1.2904
X3.4882Y-4.6496
X3.5039Y-3.1024
X3.5065Y-4.3
X3.5157Y-3.2756
X3.5315Y-2.189
X3.5394Y-1.811
X3.5394Y-4.5
X3.5433Y-3.0748
X3.55Y-1.21
X3.5633Y-2.0833
X3.58Y-3.53
X3.5897Y-1.2604
X3.5906Y-3.0276
X3.5984Y-4.4882
X3.6063Y-1.5512
X3.6142Y-1.5984
X3.6142Y-3.1417
X3.6275Y-2.6747
X3.6275Y-2.7456
X3.63Y-1.7544
X3.6597Y-1.6104
X3.6597Y-1.6904
X3.66Y-4.35
X3.67Y-1.33
X3.6732Y-4.2992
X3.6795Y-1.4465
X3.68Y-1.9
X3.6811Y-4.4843
X3.689Y-2.0984
X3.6969Y-1.5787
X3.7097Y-2.0704
X3.7126Y-2.3031
X3.7126Y-4.5827
X3.7205Y-2.6732
X3.73Y-4.23
X3.7458Y-2.1043
X3.748Y-2.9921
X3.7497Y-1.9404
X3.7497Y-2.0404
X3.7499Y-4.628
X3.8031Y-4.5827
X3.8497Y-2.0404
X3.8497Y-2.1004
X3.85Y-4.35
X3.8543Y-3.2598
X3.8583Y-4.5591
X3.8622Y-4.437
X3.8819Y-2.8465
X3.8976Y-4.6024
X3.9055Y-2.7087
X3.9252Y-4.374
X3.9291Y-4.5551
X3.9528Y-2.7559
X3.97Y-1.93
X3.9882Y-4.5157
X3.9882Y-4.5551
X3.9961Y-4.374
X3.9961Y-4.6024
X4.0033Y-2.5748
X4.0906Y-4.0472
X4.0984Y-3.2559
X4.1102Y-1.6503
X4.1378Y-1.7756
X4.1417Y-2.685
X4.2008Y-1.5709
X4.2422Y-1.5904
X4.2441Y-3.2559
X4.27Y-4.77
X4.3697Y-1.5904
X4.3898Y-1.8622
X4.73Y-1.28
X4.74Y-1.38
X4.7717Y-1.4724
X4.8819Y-5.1614
X5.0886Y-3.1516
T2
X1.9988Y-5.7126
X5.1488Y-5.7126
T3
X3.1366Y-5.0559
X3.1366Y-5.1346
X3.1366Y-5.2134
X3.1366Y-5.2921
X3.1366Y-5.3709
X3.1366Y-5.4496
X3.1366Y-5.5283
X3.1366Y-5.6071
X3.1366Y-5.6858
X3.1366Y-5.7646
X4.0028Y-5.0559
X4.0028Y-5.1346
X4.0028Y-5.2134
X4.0028Y-5.2921
X4.0028Y-5.3709
X4.0028Y-5.4496
X4.0028Y-5.5283
X4.0028Y-5.6071
X4.0028Y-5.6858
X4.0028Y-5.7646
T4
X3.9094Y-3.1811
X2.5433Y-4.6535
X2.9961Y-5.3268
X4.1339Y-5.7992
X3.6693Y-4.063
X2.1417Y-4.8661
X2.1417Y-4.9661
X2.761Y-2.3553
X2.761Y-2.4553
X4.12Y-3.4627
X4.2717Y-2.9409
X3.2697Y-3.6304
X3.3697Y-3.6304
X3.4697Y-3.6304
X3.5697Y-3.6304
X3.6697Y-3.6304
X3.7697Y-3.6304
X3.8697Y-3.6304
X2.937Y-4.3858
X2.9961Y-5.185
X2.8976Y-5.4685
X2.9976Y-5.4685
X2.4803Y-2.3543
X2.4803Y-2.4543
X4.54Y-3.4627
X2.9961Y-5.7559
X4.9882Y-3.5079
X4.2559Y-2.4803
X4.2559Y-2.5803
X3.811Y-1.5039
X3.1733Y-3.2599
X2.7953Y-4.3858
X5.185Y-3.3543
X2.937Y-4.2441
X4.2654Y-3.5844
X4.1299Y-5.1929
X2.0497Y-4.3504
X2.0497Y-4.4504
X3.0787Y-3.5472
X4.2126Y-3.8701
X2.5433Y-4.4134
X3.9597Y-4.6704
X4.0597Y-4.6704
X4.1597Y-4.6704
X4.2597Y-4.6704
X4.3597Y-4.6704
X4.4597Y-4.6704
X4.5597Y-4.6704
X4.6597Y-4.6704
X4.7597Y-4.6704
X2.9961Y-5.0433
X3.9528Y-1.5039
X1.9118Y-2.978
X1.9118Y-3.078
X1.9118Y-3.178
X1.9118Y-3.278
X1.9118Y-3.378
X1.9118Y-3.478
X1.9118Y-3.578
X1.9118Y-3.678
X1.9118Y-3.778
X1.9118Y-3.878
X2.0118Y-2.978
X2.0118Y-3.078
X2.0118Y-3.178
X2.0118Y-3.278
X2.0118Y-3.378
X2.0118Y-3.478
X2.0118Y-3.578
X2.0118Y-3.678
X2.0118Y-3.778
X2.0118Y-3.878
X3.2047Y-4.5827
X4.1297Y-2.0004
X4.1297Y-2.1004
X4.5454Y-3.5844
X4.1339Y-5.4803
X4.0276Y-2.9921
X2.2071Y-2.974
X2.2071Y-3.074
X2.2071Y-3.174
X2.2071Y-3.274
X2.2071Y-3.374
X2.2071Y-3.474
X2.2071Y-3.574
X2.2071Y-3.674
X2.2071Y-3.774
X2.2071Y-3.874
X2.3071Y-2.974
X2.3071Y-3.074
X2.3071Y-3.174
X2.3071Y-3.274
X2.3071Y-3.374
X2.3071Y-3.474
X2.3071Y-3.574
X2.3071Y-3.674
X2.3071Y-3.774
X2.3071Y-3.874
X4.4Y-3.4627
X2.9961Y-5.6102
X4.1378Y-5.9646
X4.2297Y-4.3004
X4.2297Y-4.4004
X2.622Y-2.3553
X2.622Y-2.4553
X3.815Y-4.063
X3.0787Y-3.1653
X2.189Y-4.3543
X2.189Y-4.4543
X3.6417Y-1.9843
X4.26Y-3.4627
X4.4921Y-2.9055
X4.878Y-5.7087
X4.978Y-5.7087
X2.7953Y-4.2441
X3.0787Y-4.3858
X4.1254Y-3.5844
X4.8268Y-1.9134
X4.9268Y-1.9134
X5.0268Y-1.9134
X4.1339Y-5.0512
X4.9882Y-3.3622
X3.0669Y-2.9843
X4.0709Y-3.8701
X2.3307Y-4.3543
X2.3307Y-4.4543
X5.189Y-3.6142
X3.0787Y-4.2441
X4.4054Y-3.5844
X4.1339Y-5.3346
T0
M30
